<?xml version="1.0" encoding="utf-8" ?>
<svg xmlns="http://www.w3.org/2000/svg" xmlns:xlink="http://www.w3.org/1999/xlink" width="1024" height="1024">
	<path fill="#FEFEFE" d="M491.023 128.212C511.447 126.247 540.848 131.357 560.554 137.45C583.281 144.476 603.965 156.079 618.886 175.028C634.15 194.412 643.197 219.262 653.314 241.618L681.818 304.711L779.022 521.776C789.461 544.67 799.241 567.85 809.833 590.674C813.18 597.887 816.222 605.276 819.928 612.311Q819.237 471.365 820.007 330.421L819.826 245.932L819.766 219.961C819.747 214.466 820.003 208.818 819.357 203.358C819.119 201.34 818.965 199.605 817.603 198.001C811.964 191.357 802.846 185.474 795.892 180.001C775.059 163.607 753.651 147.94 732.754 131.61Q783.949 131.976 835.144 131.549Q882.315 131.766 929.482 131.145C922.708 140.313 916.667 150.222 910.276 159.68C904.648 168.008 898.238 176.11 893.611 185.036Q891.535 189.052 889.97 193.294Q888.405 197.536 887.376 201.939C884.062 216.162 885.568 241.672 885.575 257.329L885.792 353.543L885.32 690.876Q885.335 706.543 885.139 722.208C885.067 728.999 884.734 735.938 885.237 742.714C885.979 752.714 890.983 759.688 887.23 770.119C884.182 778.586 876.903 785.532 868.803 789.24C852.32 796.785 830.883 794.735 814.311 788.563C799.967 783.221 785.931 775.023 776.912 762.377C768.991 751.269 764.108 738.403 758.232 726.162Q737.254 681.531 717.024 636.555L572.599 315.035C573.24 327.349 573.006 339.748 573.005 352.078L572.957 410.387L572.846 593.902L572.842 642.086C572.841 657.366 571.288 674.643 575.244 689.489C579.926 707.059 592.236 717.288 603.983 730.055C575.554 729.913 547.137 730.204 518.709 729.663C501.17 729.616 482.978 730.5 465.538 729.004C473.764 722.645 483.202 719.454 491.267 712.035C503.614 700.678 507.255 687.206 507.913 670.799C508.323 660.596 508.029 650.306 507.998 640.091L507.958 589.012L507.909 407.826L507.81 273.352L507.734 227.058C507.68 217.638 507.841 208.128 507.05 198.737C506.433 191.416 505.307 184.162 499.936 178.643C494.474 173.031 485.423 170.758 477.827 170.566C469.624 170.358 460.757 172.348 454.795 178.328C447.881 185.264 445.784 194.904 444.792 204.308C443.055 220.769 444.205 240.048 444.199 256.782L444.203 353.704L444.17 648.309C444.154 670.629 445.053 693.475 442.598 715.68Q442.417 717.404 442.199 719.123Q441.981 720.843 441.726 722.557Q441.472 724.272 441.18 725.98Q440.889 727.689 440.561 729.391Q440.234 731.093 439.869 732.787Q439.505 734.482 439.105 736.168Q438.704 737.854 438.268 739.532Q437.832 741.209 437.359 742.877Q436.887 744.545 436.379 746.202Q435.872 747.859 435.329 749.505Q434.785 751.151 434.207 752.785Q433.629 754.419 433.016 756.04Q432.403 757.661 431.755 759.269Q431.107 760.877 430.425 762.47Q429.743 764.063 429.028 765.642Q428.312 767.221 427.562 768.783Q426.813 770.346 426.03 771.893Q425.247 773.439 424.431 774.968Q423.616 776.497 422.767 778.009Q421.919 779.52 421.039 781.013Q420.158 782.506 419.246 783.98Q418.334 785.454 417.39 786.908Q416.447 788.362 415.472 789.795Q414.498 791.229 413.493 792.641Q412.488 794.053 411.453 795.443Q410.418 796.833 409.354 798.201Q408.289 799.569 407.196 800.914Q406.102 802.259 404.98 803.58Q403.858 804.901 402.708 806.198Q401.558 807.494 400.38 808.766Q399.203 810.038 397.998 811.284Q396.794 812.531 395.563 813.751C361.053 847.939 303.281 864.664 255.749 864.338C208.382 864.012 154.299 850.614 120.301 815.806C97.3558 792.314 86.0889 758.344 86.4104 725.855C86.7693 689.589 99.8772 653.374 126.122 627.831C159.541 595.306 209.366 587.576 254.003 588.065L253.975 683.889C236.853 685.319 220.353 689.854 207.666 702.067C194.519 714.723 188.739 733.391 188.464 751.25C188.213 767.559 192.63 784.705 204.388 796.573C216.956 809.26 235.321 813.826 252.702 813.846C275.278 813.871 297.884 805.947 314.022 789.767C327.995 775.758 334.934 756.573 337.907 737.354C341.89 711.611 340.698 685.123 340.676 659.159L340.691 557.643L340.776 185.705C334.085 178.626 326.31 172.417 318.992 165.993C305.777 154.393 292.396 142.797 279.706 130.627L399.305 130.718C420.383 130.75 441.728 131.517 462.78 130.631C472.208 130.234 481.599 128.847 491.023 128.212Z"/>
	<path fill="#FEFEFE" d="M467.946 751.293C468.498 751.613 468.326 751.442 468.7 751.924C476.871 762.469 486.632 771.781 494.875 782.296C489.321 801.39 479.92 819.236 468.632 835.528Q467.115 837.679 465.547 839.792Q463.978 841.905 462.359 843.979Q460.739 846.053 459.069 848.087Q457.4 850.121 455.681 852.113Q453.962 854.106 452.195 856.056Q450.428 858.006 448.614 859.913Q446.8 861.819 444.94 863.681Q443.08 865.542 441.175 867.358Q439.27 869.174 437.322 870.942Q435.373 872.711 433.382 874.432Q431.391 876.152 429.358 877.824Q427.326 879.495 425.253 881.117Q423.18 882.738 421.069 884.309Q418.957 885.879 416.808 887.397Q414.658 888.916 412.473 890.381Q410.287 891.847 408.066 893.259Q405.845 894.67 403.591 896.028Q401.336 897.385 399.049 898.687Q396.762 899.988 394.444 901.234Q392.126 902.479 389.778 903.668Q387.43 904.857 385.054 905.988Q382.678 907.119 380.275 908.192Q377.872 909.264 375.444 910.278Q373.015 911.292 370.563 912.246Q368.11 913.2 365.635 914.095Q363.16 914.989 360.664 915.822Q358.168 916.656 355.653 917.428Q353.137 918.201 350.603 918.911Q348.069 919.622 345.519 920.271Q342.969 920.92 340.403 921.506Q337.838 922.092 335.259 922.616Q332.68 923.139 330.089 923.6C278.585 932.831 226.579 923.936 183.26 893.844C170.714 885.034 161.254 874.967 152.434 862.519C165.409 870.987 179.659 878.354 194.293 883.472Q196.81 884.359 199.348 885.185Q201.886 886.011 204.443 886.774Q207.001 887.538 209.576 888.239Q212.151 888.939 214.743 889.577Q217.334 890.215 219.941 890.789Q222.547 891.363 225.167 891.874Q227.787 892.384 230.418 892.83Q233.049 893.276 235.691 893.658Q238.332 894.04 240.982 894.357Q243.632 894.675 246.289 894.927Q248.946 895.18 251.608 895.367Q254.271 895.554 256.937 895.677Q259.603 895.799 262.271 895.856Q264.939 895.914 267.608 895.906Q270.277 895.898 272.945 895.825Q275.613 895.752 278.278 895.613Q280.944 895.475 283.605 895.272Q286.266 895.069 288.921 894.8Q291.577 894.532 294.225 894.199Q296.873 893.866 299.512 893.469Q302.151 893.071 304.78 892.609Q307.408 892.147 310.025 891.622Q312.642 891.096 315.244 890.506Q317.847 889.916 320.435 889.263Q323.023 888.61 325.594 887.894Q328.165 887.178 330.718 886.399Q333.271 885.621 335.804 884.78Q338.337 883.939 340.848 883.037Q343.36 882.135 345.849 881.171Q348.338 880.208 350.803 879.184Q353.267 878.16 355.706 877.076Q358.145 875.992 360.557 874.849C412.616 849.747 448.972 805.537 467.946 751.293Z"/>
	<path fill="#FEFEFE" d="M762.494 188.189C770.276 192.702 788.057 212.367 796.009 219.736L796.089 408.69L796.016 467.469C796.016 479.541 796.281 491.68 795.839 503.743C788.467 490.494 782.715 476.408 776.257 462.715C772.298 454.319 764.974 442.005 763.052 433.388C761.606 426.904 762.652 418.199 762.686 411.501L762.902 365.885Q763.217 277.036 762.494 188.189Z"/>
	<path fill="#FEFEFE" d="M602.081 415.898C605.911 420.116 632.822 477.52 633.438 482.814C634.553 492.385 634.11 502.401 634.101 512.037L634.083 558.477Q634.383 641.131 633.757 723.784C622.896 716.724 611.654 708.787 601.446 700.791Q602.295 597.445 602.011 494.097C602.073 468.101 601.175 441.862 602.081 415.898Z"/>
	<path fill="#FEFEFE" d="M277.626 604.705C291.622 610.463 306.146 629.348 315.706 641.123C315.201 676.275 315.884 711.434 315.41 746.6C310.042 744.112 304.716 741.676 298.819 740.777C286.757 738.939 274.184 742.339 264.444 749.58C251.479 759.217 245.95 774.714 243.589 790.126C243.181 796.138 243.034 802.107 242.994 808.131C236.732 804.602 231.548 800.307 227.283 794.477C217.376 780.935 214.427 763.398 216.982 747.028C219.172 732.993 225.857 720.51 237.485 712.09C249.224 703.59 263.14 701.546 277.217 703.733C276.819 688.5 277.326 673.267 277.435 658.034Q277.386 631.368 277.626 604.705Z"/>
	<path fill="#FEFEFE" d="M604.383 755.242L632.189 755.022C644.179 764.112 655.919 775.352 666.405 786.172C653.594 786.879 640.599 786.427 627.761 786.424L563.25 786.495Q547.851 786.473 532.461 786.972C528.25 783.303 524.378 779.1 520.395 775.174Q510.426 765.523 500.788 755.542Q552.587 755.69 604.383 755.242Z"/>
	<path fill="#FEFEFE" d="M908.981 802.28C909.519 802.53 933.549 833.217 935.438 835.809C929.259 841.288 921.386 845.586 913.447 847.848C891.36 854.142 864.701 846.136 845.284 835.395C831.809 828.516 821.771 818.997 811.238 808.37C828.81 815.092 847.461 819.225 866.362 818.361C882.54 817.622 897.743 814.675 908.981 802.28Z"/>
</svg>
