<?xml version="1.0" encoding="utf-8" ?>
<svg xmlns="http://www.w3.org/2000/svg" xmlns:xlink="http://www.w3.org/1999/xlink" width="1024" height="1024">
	<path fill="white" d="M846.318 99.6659C852.388 107.213 857.703 115.418 863.676 123.067C873.089 132.227 880.707 143.592 888.605 154.063C897.171 165.419 905.986 176.555 914.734 187.767C919.321 193.645 923.715 199.717 928.495 205.438L928.124 697.069L928.049 823.732L928.035 861.252C928.03 868.263 928.464 875.614 927.639 882.572C926.693 890.556 922.244 899.018 916.553 904.647C905.542 915.538 880.286 926.032 864.774 925.93C851.804 925.846 840.878 917.432 832.253 908.511C824.451 900.44 818.182 891.028 809.999 883.29C801.627 878.535 793.404 869.069 787.865 861.286C778.001 847.427 770.62 831.42 762.322 816.567L726.163 750.311C720.622 740.109 714.768 730.075 709.358 719.804Q697.971 697.913 686.297 676.174C682.315 668.771 678.519 661.048 673.98 653.977C673.955 654.163 673.927 654.349 673.903 654.536C673.198 660.143 673.542 666.082 673.555 671.735L673.623 701.058L673.515 795.983C673.469 810.442 674.789 826.192 671.822 840.384C669.212 852.869 663.709 865.561 653.534 873.711C649.002 877.342 643.667 879.95 638.445 882.428C613.004 894.498 582.856 898.611 554.902 895.206C534.072 892.669 511.684 883.879 494.654 871.454C484.055 863.72 473.745 853.336 464.642 843.846C435.287 879.849 387.372 899.49 342.002 904.151C290.809 909.411 234.76 896.345 194.374 863.423C182.588 853.815 167.562 840.586 158.985 828.109Q153.081 823.338 147.64 818.045Q142.199 812.752 137.267 806.981Q135.927 805.386 134.626 803.759Q133.325 802.132 132.063 800.474Q130.801 798.817 129.58 797.13Q128.358 795.442 127.177 793.726Q125.997 792.01 124.857 790.266Q123.718 788.522 122.621 786.751Q121.524 784.98 120.47 783.183Q119.416 781.386 118.405 779.565Q117.394 777.743 116.427 775.898Q115.46 774.053 114.538 772.185Q113.616 770.317 112.739 768.428Q111.862 766.538 111.03 764.628Q110.198 762.718 109.413 760.789Q108.627 758.859 107.889 756.911Q107.15 754.964 106.458 752.999Q105.765 751.034 105.121 749.053Q104.476 747.072 103.879 745.076Q103.282 743.081 102.733 741.071Q102.184 739.062 101.684 737.039Q101.183 735.017 100.732 732.984Q100.28 730.95 99.8769 728.906Q99.474 726.862 99.1203 724.809Q98.7666 722.756 98.4622 720.696Q98.1578 718.635 97.903 716.567Q97.6481 714.5 97.443 712.427Q97.2379 710.354 97.0825 708.276Q96.9272 706.199 96.8217 704.118Q96.7163 702.038 96.6608 699.956Q96.6053 697.873 96.5998 695.79Q96.5943 693.707 96.6388 691.624Q96.6833 689.541 96.7778 687.46Q96.8722 685.379 97.0166 683.301Q97.1709 681.268 97.3755 679.239Q97.5802 677.211 97.835 675.188Q98.0899 673.165 98.3948 671.149Q98.6997 669.133 99.0546 667.125Q99.4093 665.117 99.8138 663.119Q100.218 661.121 100.672 659.133Q101.126 657.145 101.629 655.169Q102.132 653.193 102.684 651.231Q103.236 649.268 103.836 647.319Q104.436 645.371 105.085 643.438Q105.733 641.505 106.43 639.588Q107.126 637.672 107.869 635.774Q108.613 633.875 109.403 631.996Q110.193 630.116 111.03 628.257Q111.867 626.397 112.749 624.559Q113.631 622.721 114.559 620.906Q115.487 619.09 116.459 617.298Q117.432 615.506 118.449 613.739Q119.465 611.971 120.525 610.23Q121.585 608.488 122.688 606.773Q123.791 605.059 124.937 603.372Q126.082 601.685 127.268 600.027Q128.455 598.369 129.682 596.74Q130.909 595.112 132.177 593.515Q133.444 591.918 134.751 590.353Q136.057 588.787 137.402 587.255Q138.747 585.723 140.13 584.224Q141.512 582.725 142.931 581.262Q144.35 579.798 145.806 578.37Q147.261 576.941 148.751 575.55Q150.241 574.158 151.765 572.803Q153.289 571.449 154.846 570.133C174.607 553.399 198.174 543.314 223.204 537.436C230.042 535.83 237.294 534.078 244.357 534.744C248.25 535.111 252.214 536.119 255.7 537.913C268.753 544.631 283.403 562.234 292.861 573.579L294.204 573.999C294.712 568.022 294.229 561.624 294.201 555.609L294.091 518.751L294.147 401.911C290.002 401.762 285.809 401.681 281.691 401.171C250.234 397.274 235.257 377.269 215.393 355.66C207.997 347.614 199.713 339.743 193.03 331.117C180.647 320.454 170.036 307.168 166.841 290.814Q166.544 289.341 166.322 287.855Q166.099 286.37 165.95 284.875Q165.802 283.38 165.728 281.879Q165.655 280.379 165.656 278.876Q165.657 277.374 165.733 275.874Q165.809 274.373 165.96 272.879Q166.111 271.384 166.336 269.899Q166.562 268.413 166.861 266.941Q167.16 265.469 167.532 264.013Q167.904 262.558 168.348 261.123Q168.792 259.687 169.307 258.276Q169.823 256.865 170.408 255.481Q170.993 254.097 171.646 252.745Q172.299 251.392 173.019 250.073Q173.739 248.754 174.524 247.473Q175.308 246.192 176.156 244.952C181.434 237.268 188.101 230.811 196.41 226.502C208.686 220.135 230.817 216.149 245.098 212.642C261.972 208.498 278.893 203.891 295.967 200.679C295.627 193.97 295.359 187.256 296.009 180.556C297.83 161.764 305.676 144.355 320.504 132.303Q323.058 130.221 325.776 128.358Q328.493 126.494 331.355 124.862Q334.217 123.229 337.204 121.838Q340.19 120.447 343.282 119.307C352.642 115.91 424.501 99.9938 430.586 100.783C442.495 102.328 452.836 113.989 459.661 122.905C467.992 129.893 475.152 139.472 482.313 147.675C511.696 142.607 539.24 144.183 564.274 161.949C575.569 169.965 584.497 179.773 592.356 191.105C595.415 195.517 598.297 200.41 601.72 204.525C611.746 210.044 619.554 220.482 626.165 229.669C635.641 242.838 642.933 257.469 651.231 271.392L701.861 357.213Q709.395 370.454 717.316 383.467C719.928 387.785 722.472 392.498 725.556 396.482C726.034 390.098 725.748 383.491 725.769 377.079L725.869 341.264L725.992 229.976L725.948 196.914C725.939 189.114 725.59 181.155 726.647 173.414C727.867 164.486 730.945 156.11 735.384 148.284C740.744 138.835 748.731 130.243 758.159 124.771C771.501 117.029 792.662 113.339 807.941 109.593Q827.187 104.852 846.318 99.6659Z"/>
	<defs>
		<linearGradient id="gradient_0" gradientUnits="userSpaceOnUse" x1="642.01056" y1="333.49118" x2="687.43671" y2="286.06384">
			<stop offset="0" stop-color="#21313E" stop-opacity="0"/>
			<stop offset="1" stop-color="#174449" stop-opacity="0"/>
		</linearGradient>
	</defs>
	<path fill="url(#gradient_0)" d="M601.72 204.525C611.746 210.044 619.554 220.482 626.165 229.669C635.641 242.838 642.933 257.469 651.231 271.392L701.861 357.213Q709.395 370.454 717.316 383.467C719.928 387.785 722.472 392.498 725.556 396.482C726.942 400.896 726.029 411.688 725.991 416.68Q679.4 340.636 635.605 262.948C624.468 243.425 612.303 224.346 601.72 204.525Z"/>
	<defs>
		<linearGradient id="gradient_1" gradientUnits="userSpaceOnUse" x1="298.89154" y1="633.33069" x2="289.6665" y2="632.70703">
			<stop offset="0" stop-color="white"/>
			<stop offset="1" stop-color="#A8AAB3" stop-opacity="0"/>
		</linearGradient>
	</defs>
	<path fill="url(#gradient_1)" d="M292.861 573.579L294.204 573.999C294.891 574.764 295.9 575.733 296.275 576.695C297.64 580.188 297.379 676.986 296.358 686.198C295.901 690.318 294.539 693.938 292.506 697.524Q293.297 635.553 292.861 573.579Z"/>
	<path fill="#020202" d="M431.523 120.632C431.552 120.648 431.587 120.656 431.61 120.679C431.613 120.682 432.309 121.463 432.313 121.475C433.004 123.881 432.406 131.936 432.419 134.901L432.606 180.287C457.581 176.183 484.08 164.129 508.881 163.743C530.561 163.406 546.853 172.299 562.118 187.282C571.256 196.251 578.695 207.549 585.448 218.385C591.479 228.061 596.735 238.195 602.258 248.164C608.038 258.598 614.11 268.904 619.996 279.284L683.165 390.147L716.514 449.201C718.983 453.662 722.849 457.86 724.59 462.615C726.598 468.098 725.478 491.224 725.516 498.875C714.94 480.757 705.333 461.951 695.071 443.635L626.842 322.507Q607.624 287.747 587.612 253.437C575.363 232.477 564.209 208.406 545.578 192.301C530.15 178.965 517.591 177.984 497.88 179.457C500.17 179.963 502.487 180.464 504.729 181.154C513.366 183.814 520.561 189.616 526.103 196.627C536.559 209.853 544.563 226.233 552.741 240.949L583.335 295.074Q617.321 353.82 649.739 413.445C657.768 427.939 666.154 442.255 673.945 456.877Q698.763 503.567 722.423 550.855C730.593 567.046 738.446 583.485 746.927 599.508C745.949 572.176 746.688 544.568 746.679 517.205L746.809 343.676L746.733 231.915L746.807 197.991C746.834 190.706 746.559 183.21 747.441 175.969C748.549 166.867 752.148 158.998 758.037 151.968C761.752 147.532 765.234 144.528 770.403 141.927C776.969 138.622 826.976 123.957 833.771 123.556C837.531 123.334 841.068 125.671 843.747 128.09C848.71 132.573 850.381 138.728 850.619 145.198C851.226 161.694 850.72 178.362 850.682 194.874L850.642 284.871L850.657 580.136L850.757 729.902L850.89 779.246C850.899 788.899 851.314 798.784 850.465 808.397C849.499 819.341 846.524 829.448 838.856 837.586C828.931 848.119 816.628 850.787 802.707 851.279C797.091 842.266 792.96 832.158 788.415 822.563C780.681 806.236 772.901 789.793 764.341 773.886L652.545 566.006C634.001 531.771 616.381 496.839 596.466 463.37C597.59 482.49 597.035 501.913 597.065 521.071L597.046 615.125L596.779 726.832C596.648 745.124 597.962 765.816 595.11 783.813C594.02 790.689 591.342 797.578 587.355 803.301C577.847 816.949 562.159 823.481 546.241 826.201C522.164 830.314 492.005 830.453 471.404 815.673C453.377 802.739 445.385 780.195 441.906 759.113C450.5 762.518 466.41 768.766 475.262 768.335C476.164 768.291 477.428 768.09 478.014 767.342C481.117 763.375 481.422 754.535 481.544 749.655C481.911 734.989 481.549 720.244 481.515 705.57L481.509 630.926L481.143 395.89L481.205 297.124C481.189 282.011 482.316 263.265 480.25 248.544C478.809 238.283 475.429 226.17 466.601 219.833C456.223 212.382 444.364 215.933 432.93 217.912C433.531 249.175 433.051 280.525 433.08 311.799Q433.667 395.423 433.218 479.047L433.466 587.804C433.442 607.534 433.756 627.32 432.759 647.028C429.907 703.396 418.908 759.835 374.926 799.252C367.027 806.332 357.904 812.061 348.638 817.18C318.396 833.885 285.074 842.325 250.466 840.259Q248.731 840.17 246.999 840.037Q245.267 839.905 243.539 839.729Q241.811 839.553 240.088 839.333Q238.365 839.114 236.648 838.851Q234.931 838.588 233.221 838.283Q231.511 837.977 229.809 837.628Q228.107 837.28 226.415 836.888Q224.722 836.497 223.04 836.063Q221.358 835.63 219.688 835.154Q218.017 834.678 216.359 834.16Q214.701 833.643 213.056 833.084Q211.411 832.525 209.781 831.924Q208.151 831.324 206.537 830.683Q204.922 830.042 203.324 829.36Q201.727 828.679 200.146 827.957Q198.566 827.236 197.005 826.475Q195.443 825.714 193.901 824.914Q192.359 824.115 190.838 823.276Q189.316 822.438 187.817 821.562Q186.317 820.685 184.839 819.772Q183.362 818.858 181.908 817.907Q180.454 816.957 179.025 815.97Q177.595 814.983 176.191 813.961Q174.787 812.938 173.408 811.881Q172.03 810.823 170.679 809.732Q169.328 808.64 168.005 807.515Q166.681 806.389 165.387 805.231Q164.092 804.073 162.827 802.883Q161.562 801.692 160.327 800.471Q159.092 799.249 157.889 797.996Q156.685 796.744 155.513 795.462Q154.341 794.179 153.202 792.868C127.687 763.654 116.618 721.22 119.339 683.039C122.005 645.637 138.201 613.398 166.635 588.869C184.271 573.655 204.55 564.043 226.889 558.106C231.429 556.9 236.848 554.995 241.568 555.477C245.645 555.893 247.975 558.328 249.185 562.125C251.606 569.718 250.28 582.74 250.244 590.846L250.126 653.502C250.071 668.275 249.021 682.933 251.387 697.609C252.566 704.92 254.617 712.788 259.495 718.571C263.647 723.493 269.555 726.104 275.926 726.452C283.328 726.857 290.227 723.674 295.61 718.78C306.301 709.062 310.554 692.249 312.413 678.482C315.087 658.688 314.206 638.694 314.078 618.78L314.097 550.424L314.043 394.607C314.038 369.357 313.634 344.028 314.147 318.784C314.334 309.592 315.219 300.419 315.605 291.233C316.162 278.017 316.308 264.787 316.907 251.575C313.315 252.287 309.921 253.173 306.444 254.322C300.496 269.356 290.877 281.527 276.685 289.583C257.72 300.349 230.647 303.837 209.61 298.096C216.986 306.303 227.376 313.125 238.079 315.968C256.309 320.809 277.509 312.592 293.161 303.623L293.273 318.17Q287.179 320.985 280.86 323.25Q274.541 325.515 268.047 327.213C250.351 331.859 230.161 334.066 213.724 324.369C201.848 317.362 191.884 305.124 188.506 291.646C185.681 280.371 186.67 268.693 192.749 258.663C196.584 252.334 202.279 246.498 208.983 243.229C219.259 238.219 235.557 235.952 247.032 233.233L316.516 216.473L316.455 195.209C316.435 181.921 316.717 170.474 324.215 158.96C329.413 150.977 336.727 145.026 345.272 140.907C355.735 135.864 367.485 134.287 378.734 131.806L431.523 120.632Z"/>
	<path fill="white" d="M415.184 140.948C415.749 141.097 415.41 140.944 415.983 141.725L416.217 523.254L416.319 614.079C416.282 641.166 416.876 669.469 411.728 696.156C405.383 729.048 391.875 759.351 363.245 778.64C338.475 795.328 302.529 801.37 273.43 795.512C250.264 790.849 232.766 776.422 219.993 757.025C215.963 750.324 212.723 742.517 210.191 735.119C221.817 747.846 236.317 759.15 252.768 764.886C276.99 773.329 306.382 768.499 328.953 757.474C359.052 742.772 374.422 715.193 382.835 684.038C392.608 647.849 390.649 608.748 390.535 571.615L390.534 492.143L390.388 255.97L390.009 204.916C389.992 195.98 389.603 186.823 390.395 177.919C390.793 173.443 391.568 168.995 393.045 164.741C396.854 153.772 404.846 145.895 415.184 140.948Z"/>
	<path fill="white" d="M831.277 141.965C831.568 142.256 831.548 142.174 831.682 142.64C832.664 146.043 831.908 174.104 831.921 179.48L832.024 309.829L832.061 587Q832.903 672.263 832.142 757.527C832.078 774.064 832.641 790.666 832.35 807.19C832.262 812.213 831.667 817.681 829.418 822.234C825.245 830.681 817.337 834.678 808.838 837.469L808.317 837.286C808.307 837.082 808.271 836.215 808.226 836.04C807.761 834.199 808.133 837.286 807.894 834.478C808.509 833.609 808.377 832.092 808.465 831.023L807.505 830.748C808.325 830.095 808.05 829.394 808.077 828.365C809.131 788.648 808.31 748.863 808.641 709.133L809.33 332.495L809.387 227.06L809.388 196.372C809.394 187.385 808.578 177.553 810.853 168.813Q811.133 167.769 811.464 166.739Q811.794 165.71 812.175 164.697Q812.555 163.685 812.983 162.692Q813.412 161.7 813.889 160.729Q814.365 159.758 814.888 158.812Q815.411 157.865 815.979 156.945Q816.547 156.025 817.16 155.134Q817.772 154.242 818.426 153.382Q819.081 152.521 819.777 151.693Q820.473 150.866 821.208 150.072Q821.943 149.279 822.715 148.523Q823.488 147.766 824.296 147.048Q825.104 146.33 825.947 145.652Q826.789 144.973 827.663 144.337Q828.537 143.701 829.441 143.107Q830.345 142.514 831.277 141.965Z"/>
	<path fill="white" d="M559.089 380.425C563.866 385.089 577.199 412.108 581.588 420.013L581.445 669.817L581.503 736.521C581.512 749.499 582.79 764.272 580.251 777.002Q580.07 777.944 579.842 778.875Q579.614 779.807 579.339 780.726Q579.065 781.645 578.745 782.549Q578.424 783.453 578.059 784.339Q577.694 785.226 577.284 786.094Q576.875 786.961 576.423 787.806Q575.97 788.652 575.476 789.474Q574.982 790.296 574.447 791.092Q573.912 791.888 573.338 792.656Q572.764 793.424 572.152 794.163Q571.54 794.901 570.892 795.608Q570.244 796.315 569.561 796.988Q568.878 797.661 568.162 798.3Q567.446 798.938 566.699 799.539Q565.952 800.141 565.176 800.704Q564.4 801.267 563.596 801.791C546.336 813.048 514.486 813.606 494.88 809.597C486.445 807.463 479.89 804.289 473.195 798.733C479.97 801.318 486.837 802.91 494.114 803.026C511.197 803.298 530.142 798.118 542.632 785.976C551.184 777.663 556.085 765.893 557.841 754.212C560.211 738.443 558.873 720.339 558.723 704.343Q558.566 673.962 558.825 643.582L558.955 468.37C559.001 439.072 558.531 409.713 559.089 380.425Z"/>
	<path fill="white" d="M231.871 566.914C233.18 571.53 232.05 591.456 232.04 597.535L232.303 650.541C232.441 669.879 232.013 689.859 235.982 708.883C238.345 720.211 242.311 730.232 247.386 740.556C241.17 737.588 236.305 733.553 231.48 728.684C227.355 723.86 223.43 718.95 220.234 713.448C206.724 690.188 204.812 656.599 205.077 630.346C205.205 617.6 205.538 604.758 208.848 592.36C212.504 578.663 220.293 573.684 231.871 566.914Z"/>
</svg>
