<?xml version="1.0" encoding="utf-8" ?>
<svg xmlns="http://www.w3.org/2000/svg" xmlns:xlink="http://www.w3.org/1999/xlink" width="1024" height="1024">
	<path fill="#FEFEFE" d="M494.094 144.407L609.701 144.516C617.782 162.052 624.584 180.316 631.958 198.168L667.396 283.436L714.017 398.23C719.431 411.51 725.543 424.497 730.853 437.832L752.295 491.312C760.91 513.377 769.249 535.532 779.013 557.13L778.886 144.511L880.293 144.433C879.401 168.798 880.091 193.36 880.001 217.758L880.042 384.276L879.952 833.025Q856.353 833.474 832.75 833.351Q807.836 833.437 782.925 833.021C779.923 823.879 775.014 814.829 771.049 806.051Q761.788 785.361 753.072 764.436L688.451 606.787L618.754 436.295L602.373 396.624C599.322 389.264 596.531 381.172 592.501 374.31C592.952 397.978 592.407 421.631 592.221 445.297L592.078 527.661L592.069 832.855C559.707 833.398 527.223 832.849 494.857 832.5C494.104 801.92 494.68 771.165 494.647 740.567L494.733 557.626L494.094 144.407Z"/>
	<path fill="#FEFEFE" d="M294.307 132.23L298.044 132.18C344.095 131.719 392.479 136.865 427.054 171.045C453.382 197.072 463.948 233.715 464.088 269.92L464.034 562.698L463.985 644.682C463.99 672.811 465.153 701.551 459.371 729.248C453.312 758.269 441.408 781.791 420.355 802.858C388.825 834.408 334.432 850.032 290.627 849.959C233.982 849.865 181.189 838.952 139.953 797.351C89.7009 746.655 96.7306 678.144 96.939 612.75L96.9588 534.035C112.375 533.615 127.845 534.222 143.268 534.309C160.646 534.406 178.027 534.006 195.409 534.126L195.549 637.662L195.551 670.342C195.544 681.988 194.686 694.184 197.945 705.494C203.135 723.503 215.965 739.721 232.389 748.758C255.571 761.511 301.142 759.101 326.208 751.813C338.911 748.12 351.11 741.704 357.577 729.66C363.133 719.313 364.805 707.091 365.482 695.524C366.904 671.202 365.912 646.426 365.937 622.04L365.695 474.62L365.612 321.846L365.576 290.747C365.621 279.671 367.214 266.252 363.862 255.635C360.661 245.501 353.894 237.213 344.447 232.313C317.218 218.189 266.008 223.238 236.511 229.446C223.946 232.091 211.69 235.833 199.472 239.744C199.115 210.285 199.273 180.87 199.379 151.409C228.849 138.174 262.251 133.238 294.307 132.23Z"/>
	<path fill="white" d="M900.028 151.496C904.854 156.985 909.885 162.238 914.995 167.459C919.324 171.882 924.657 176.527 927.935 181.754C931.813 182.252 935.095 186.676 937.383 189.641L937.746 190.118C937.323 232.079 938.148 274.079 938.139 316.051L938.361 649.821L938.219 810.224L938.089 870.251C938.057 880.652 937.538 891.207 938.016 901.583L810.683 902.108C807.895 898.865 804.591 895.567 804.339 891.087C801.63 889.338 788.436 868.075 785.478 863.885C798.361 863.173 811.401 863.539 824.309 863.482Q862.65 863.305 900.99 863.548Q900.444 818.739 900.578 773.926L900.537 641.042L900.028 151.496Z"/>
	<path fill="white" d="M622.001 487.309C622.164 487.451 622.36 487.562 622.491 487.734C623.73 489.349 648.474 549.397 648.845 551.704C650.261 560.518 649.028 570.818 649.074 579.818Q649.294 617.284 649.095 654.75L649.452 890.492Q585.49 889.952 521.53 890.659C512.22 882.21 503.156 871.88 494.188 862.867C536.775 861.766 579.546 862.574 622.149 862.82L621.987 608.071L621.87 532.833C621.781 517.766 620.983 502.326 622.001 487.309Z"/>
	<path fill="white" d="M475.59 781.812C477.828 784.93 476.812 827.585 476.795 834.552Q474.576 837.397 472.229 840.138Q469.883 842.879 467.415 845.51Q464.946 848.142 462.361 850.658Q459.775 853.175 457.078 855.571Q454.381 857.968 451.577 860.239Q448.774 862.51 445.87 864.652Q442.966 866.793 439.968 868.801Q436.97 870.808 433.884 872.677Q431.302 874.225 428.683 875.709Q426.065 877.193 423.41 878.612Q420.755 880.031 418.066 881.385Q415.378 882.738 412.656 884.025Q409.935 885.312 407.183 886.531Q404.431 887.75 401.65 888.902Q398.869 890.053 396.06 891.136Q393.251 892.219 390.417 893.232Q387.582 894.245 384.724 895.188Q381.865 896.131 378.984 897.003Q376.103 897.876 373.202 898.677Q370.3 899.479 367.38 900.208Q364.459 900.938 361.522 901.596Q358.584 902.253 355.632 902.839Q352.679 903.424 349.713 903.936Q346.746 904.448 343.768 904.888Q340.791 905.327 337.803 905.693Q334.815 906.058 331.819 906.351Q328.823 906.643 325.821 906.861Q322.819 907.08 319.812 907.224Q316.805 907.368 313.796 907.439Q310.786 907.509 307.776 907.506Q304.766 907.502 301.757 907.424Q298.748 907.347 295.742 907.195Q292.735 907.043 289.734 906.817Q286.732 906.592 283.737 906.292Q280.741 905.993 277.754 905.62Q274.768 905.247 271.791 904.8Q268.814 904.354 265.849 903.834Q262.884 903.315 259.933 902.723Q256.981 902.13 254.045 901.466Q251.11 900.801 248.191 900.064C201.611 888.739 162.621 862.473 137.526 821.236C133.658 814.76 129.874 807.541 127.162 800.508C147.235 826.215 171.424 847.424 201.518 860.725C257.85 885.625 331.826 886.935 389.181 864.621C429.512 848.93 458.17 821.536 475.59 781.812Z"/>
	<path fill="white" d="M223.807 536.086C228.755 540.69 265.934 578.231 266.37 579.54C266.548 580.075 266.527 580.656 266.605 581.214C270.326 582.793 274.208 588.141 276.5 591.454L276.611 692.786C276.656 708.274 275.916 724.679 276.791 740.054L266.409 739.906C265.514 739.935 264.649 739.949 263.754 739.912C252.772 739.464 238.637 735.221 231.185 726.699C228.322 723.424 224.519 715.956 223.799 711.562C222.653 704.564 223.376 696.705 223.406 689.583L223.533 649.428L223.534 577.697C223.524 563.868 223.091 549.887 223.807 536.086Z"/>
	<path fill="white" d="M625.047 144.592C631.631 144.486 638.224 144.525 644.81 144.493L735.896 361.833C741.101 374.583 746.858 387.213 752.548 399.756C755.55 406.373 759.639 413.365 761.452 420.405C762.978 426.333 762.272 465.151 762.006 473.727C759.645 471.886 739.26 417.389 736.231 409.922L673.682 258.496Q657.387 218.216 640.082 178.359C635.166 167.076 630.418 155.666 625.047 144.592Z"/>
	<path fill="white" d="M207.824 271.045C218.219 266.657 229.415 264.295 240.418 262.005C269.089 256.036 304.866 250.462 333.346 259.365C337.628 260.703 347.413 263.743 349.609 267.937C350.172 273.495 354.326 277.519 357.085 282.152C357.288 287.431 357.567 292.72 357.608 298.003C346.63 298.707 335.607 299.601 324.614 299.926C306.276 300.468 247.171 299.858 234.289 305.177C231.224 300.459 227.775 296.26 224.333 291.834C221.196 289.541 210.912 274.967 207.824 271.045Z"/>
</svg>
